<svg xmlns="http://www.w3.org/2000/svg" width="32" height="32" viewBox="0 0 32 32" fill="none">
  <circle cx="16" cy="16" r="16" fill="#FF9500"/>
  <path d="M10 12C10 10.8954 10.8954 10 12 10H20C21.1046 10 22 10.8954 22 12V14C22 15.1046 21.1046 16 20 16H12C10.8954 16 10 15.1046 10 14V12Z" fill="white"/>
  <path d="M8 18C8 17.4477 8.44772 17 9 17H23C23.5523 17 24 17.4477 24 18V20C24 20.5523 23.5523 21 23 21H9C8.44772 21 8 20.5523 8 20V18Z" fill="white"/>
  <path d="M14 22C14 21.4477 14.4477 21 15 21H17C17.5523 21 18 21.4477 18 22V24C18 24.5523 17.5523 25 17 25H15C14.4477 25 14 24.5523 14 24V22Z" fill="white"/>
  <circle cx="12" cy="12" r="1.5" fill="#333333"/>
  <circle cx="20" cy="12" r="1.5" fill="#333333"/>
  <path d="M14 18C14 18.5523 14.4477 19 15 19H17C17.5523 19 18 18.5523 18 18" stroke="#333333" stroke-width="1.5" stroke-linecap="round"/>
  <path d="M10 8C10 7.44772 10.4477 7 11 7H21C21.5523 7 22 7.44772 22 8V9C22 9.55228 21.5523 10 21 10H11C10.4477 10 10 9.55228 10 9V8Z" fill="#333333"/>
</svg>