<svg xmlns="http://www.w3.org/2000/svg" width="32" height="32" viewBox="0 0 32 32" fill="none">
  <!-- 地雷主体 -->
  <circle cx="16" cy="18" r="10" fill="#333333"/>
  <circle cx="16" cy="18" r="9" fill="#222222"/>
  
  <!-- 地雷表面凸起 -->
  <circle cx="12" cy="16" r="1.5" fill="#555555"/>
  <circle cx="20" cy="16" r="1.5" fill="#555555"/>
  <circle cx="16" cy="14" r="1.5" fill="#555555"/>
  <circle cx="16" cy="20" r="1.5" fill="#555555"/>
  <circle cx="13" cy="20" r="1.5" fill="#555555"/>
  <circle cx="19" cy="20" r="1.5" fill="#555555"/>
  
  <!-- 地雷引线 -->
  <path d="M16 12L14 8L12 6" stroke="#888888" stroke-width="1.5" stroke-linecap="round" stroke-linejoin="round"/>
  
  <!-- 爆炸火焰 -->
  <path d="M10 6C10 4.89543 10.8954 4 12 4H14C15.1046 4 16 4.89543 16 6V8" stroke="#FF9500" stroke-width="1.5" stroke-linecap="round" stroke-linejoin="round"/>
  <path d="M8 8C8 6.89543 8.89543 6 10 6H12C13.1046 6 14 6.89543 14 8V10" stroke="#FF3B30" stroke-width="1.5" stroke-linecap="round" stroke-linejoin="round"/>
  <path d="M12 4C12 2.89543 12.8954 2 14 2H16C17.1046 2 18 2.89543 18 4V6" stroke="#FF9500" stroke-width="1.5" stroke-linecap="round" stroke-linejoin="round"/>
  <path d="M10 2C10 0.895431 10.8954 0 12 0H14C15.1046 0 16 0.895431 16 2V4" stroke="#FF3B30" stroke-width="1.5" stroke-linecap="round" stroke-linejoin="round"/>
  
  <!-- 火焰亮点 -->
  <circle cx="14" cy="4" r="1" fill="#FFFFFF" opacity="0.8"/>
  <circle cx="12" cy="2" r="1" fill="#FFFFFF" opacity="0.6"/>
  <circle cx="16" cy="2" r="1" fill="#FFFFFF" opacity="0.6"/>
</svg>