<svg xmlns="http://www.w3.org/2000/svg" width="32" height="32" viewBox="0 0 32 32" fill="none">
  <!-- ???????????????? -->
  <rect x="2" y="4" width="28" height="24" rx="8" fill="#0ea5e9"/>
  <rect x="3.5" y="5.5" width="25" height="21" rx="7" fill="#38bdf8"/>

  <!-- ???? -->
  <defs>
    <linearGradient id="cloud-bg" x1="8" y1="10" x2="24" y2="22" gradientUnits="userSpaceOnUse">
      <stop offset="0" stop-color="#f9fafb"/>
      <stop offset="1" stop-color="#e5f3ff"/>
    </linearGradient>
  </defs>

  <!-- ???? -->
  <path
    d="M10.5 20.5C8.567 20.5 7 18.933 7 17s1.567-3.5 3.5-3.5c.18 0 .36.01.54.03C11.6 11.9 13.37 10.5 15.5 10.5c2.33 0 4.25 1.61 4.77 3.78.16-.02.33-.03.5-.03 2.07 0 3.75 1.68 3.75 3.75S22.84 21.75 20.77 21.75h-9.52Z"
    fill="url(#cloud-bg)"
  />

  <!-- ???? -->
  <path
    d="M10.5 20.5C8.567 20.5 7 18.933 7 17s1.567-3.5 3.5-3.5c.18 0 .36.01.54.03C11.6 11.9 13.37 10.5 15.5 10.5c2.33 0 4.25 1.61 4.77 3.78.16-.02.33-.03.5-.03 2.07 0 3.75 1.68 3.75 3.75S22.84 21.75 20.77 21.75h-9.52Z"
    stroke="#cbd5f5"
    stroke-width="1.1"
  />

  <!-- ???? -->
  <path
    d="M11.2 15.4c.55-1.65 2.05-2.9 3.9-2.9 1.67 0 3.1.98 3.76 2.39"
    stroke="#e0f2fe"
    stroke-width="1.1"
    stroke-linecap="round"
  />

  <!-- ???????????????????? -->
  <rect x="15.2" y="17" width="1.2" height="4" rx="0.6" fill="#38bdf8"/>
  <rect x="13" y="18.2" width="1.8" height="1.1" rx="0.55" fill="#a5b4fc"/>
  <rect x="17" y="18.2" width="1.8" height="1.1" rx="0.55" fill="#a5b4fc"/>
</svg>